<!DOCTYPE svg PUBLIC "-//W3C//DTD SVG 1.1//EN" "http://www.w3.org/Graphics/SVG/1.1/DTD/svg11.dtd">

<svg fill="#a855f7" width="256px" height="256px" viewBox="0 0 32.00 32.00" version="1.1" xmlns="http://www.w3.org/2000/svg" stroke="#a855f7" stroke-width="0.00032">
<g stroke-width="0"/>
<g stroke-linecap="round" stroke-linejoin="round"/>
<g> <title>chevron-up</title> <path d="M26.885 20.115l-10.001-9.999c-0.226-0.226-0.539-0.366-0.884-0.366s-0.658 0.14-0.884 0.366l-10 9.999c-0.227 0.226-0.367 0.539-0.367 0.885 0 0.691 0.56 1.251 1.251 1.251 0.345 0 0.658-0.14 0.884-0.366v0l9.116-9.117 9.115 9.117c0.226 0.226 0.539 0.366 0.884 0.366 0.691 0 1.251-0.56 1.251-1.251 0-0.345-0.14-0.658-0.366-0.884l0 0z"/> </g>
</svg>